<svg width="56" height="57" viewBox="0 0 56 57" fill="none" xmlns="http://www.w3.org/2000/svg">
<path d="M28.3971 35.1786L29.1775 34.3981C29.515 34.0641 29.508 33.5192 29.1635 33.1923L24.9271 29.1563H35.031C35.4986 29.1563 35.8748 28.7802 35.8748 28.3126V27.1876C35.8748 26.72 35.4986 26.3438 35.031 26.3438H24.9271L29.1635 22.3079C29.5045 21.981 29.5115 21.436 29.1775 21.1021L28.3971 20.3216C28.0701 19.9911 27.5357 19.9911 27.2053 20.3216L20.3709 27.1559C20.0404 27.4829 20.0404 28.0173 20.3709 28.3477L27.2053 35.1786C27.5322 35.5091 28.0666 35.5091 28.3971 35.1786Z" fill="#959EAD"/>
</svg>
