<svg width="25" height="25" viewBox="0 0 25 25" fill="none" xmlns="http://www.w3.org/2000/svg">
<g clip-path="url(#clip0_24_21784)">
<path d="M18.8037 18.7782H16.1388V14.6012C16.1388 13.6052 16.1187 12.3232 14.7487 12.3232C13.3597 12.3232 13.1477 13.4072 13.1477 14.5282V18.7782H10.4817V10.1892H13.0417V11.3592H13.0767C13.4347 10.6852 14.3047 9.97221 15.6047 9.97221C18.3047 9.97221 18.8048 11.7502 18.8048 14.0632V18.7782H18.8037ZM7.47175 9.01421C7.26831 9.01447 7.06681 8.97458 6.87881 8.89682C6.69082 8.81905 6.52002 8.70495 6.37621 8.56104C6.2324 8.41714 6.1184 8.24627 6.04076 8.05822C5.96312 7.87017 5.92335 7.66865 5.92375 7.46521C5.92395 7.15904 6.01493 6.85981 6.18519 6.60536C6.35545 6.3509 6.59734 6.15264 6.88028 6.03566C7.16322 5.91868 7.47449 5.88823 7.77473 5.94815C8.07497 6.00807 8.35071 6.15568 8.56706 6.37232C8.78341 6.58895 8.93066 6.86487 8.9902 7.16519C9.04974 7.46551 9.01888 7.77674 8.90153 8.05953C8.78418 8.34231 8.58562 8.58395 8.33094 8.75388C8.07626 8.92381 7.77692 9.01441 7.47075 9.01421H7.47175ZM8.80775 18.7782H6.13475V10.1892H8.80875V18.7782H8.80775ZM20.1388 3.43921H4.79775C4.06175 3.43921 3.46875 4.01921 3.46875 4.73621V20.1422C3.46875 20.8592 4.06275 21.4392 4.79675 21.4392H20.1348C20.8687 21.4392 21.4688 20.8592 21.4688 20.1422V4.73621C21.4688 4.01921 20.8687 3.43921 20.1348 3.43921H20.1378H20.1388Z" fill="#F9BC6E"/>
</g>
<defs>
<clipPath id="clip0_24_21784">
<rect width="24" height="24" fill="white" transform="translate(0.46875 0.439209)"/>
</clipPath>
</defs>
</svg>
