<svg width="25" height="25" viewBox="0 0 25 25" fill="none" xmlns="http://www.w3.org/2000/svg">
<path d="M12.479 9.78613C11.6826 9.78613 10.9187 10.1022 10.3555 10.6648C9.79234 11.2274 9.47594 11.9905 9.47594 12.7861C9.47594 13.5818 9.79234 14.3448 10.3555 14.9075C10.9187 15.4701 11.6826 15.7861 12.479 15.7861C13.2755 15.7861 14.0393 15.4701 14.6025 14.9075C15.1657 14.3448 15.4821 13.5818 15.4821 12.7861C15.4821 11.9905 15.1657 11.2274 14.6025 10.6648C14.0393 10.1022 13.2755 9.78613 12.479 9.78613ZM12.479 7.78613C13.8065 7.78613 15.0795 8.31292 16.0182 9.2506C16.9568 10.1883 17.4842 11.4601 17.4842 12.7861C17.4842 14.1122 16.9568 15.384 16.0182 16.3217C15.0795 17.2593 13.8065 17.7861 12.479 17.7861C11.1516 17.7861 9.8785 17.2593 8.93986 16.3217C8.00121 15.384 7.47389 14.1122 7.47389 12.7861C7.47389 11.4601 8.00121 10.1883 8.93986 9.2506C9.8785 8.31292 11.1516 7.78613 12.479 7.78613ZM18.9857 7.53613C18.9857 7.86765 18.8539 8.1856 18.6192 8.42002C18.3846 8.65444 18.0663 8.78613 17.7344 8.78613C17.4026 8.78613 17.0843 8.65444 16.8496 8.42002C16.615 8.1856 16.4831 7.86765 16.4831 7.53613C16.4831 7.20461 16.615 6.88667 16.8496 6.65225C17.0843 6.41783 17.4026 6.28613 17.7344 6.28613C18.0663 6.28613 18.3846 6.41783 18.6192 6.65225C18.8539 6.88667 18.9857 7.20461 18.9857 7.53613ZM12.479 4.78613C10.0025 4.78613 9.59807 4.79313 8.44589 4.84413C7.66108 4.88113 7.13454 4.98613 6.64604 5.17613C6.21159 5.34413 5.89827 5.54513 5.56493 5.87913C5.25161 6.18153 5.01071 6.55072 4.8602 6.95913C4.67001 7.44913 4.5649 7.97413 4.52886 8.75713C4.47681 9.86113 4.4708 10.2471 4.4708 12.7861C4.4708 15.2601 4.47781 15.6641 4.52886 16.8151C4.5659 17.5981 4.67101 18.1251 4.8602 18.6121C5.03038 19.0471 5.23058 19.3601 5.56293 19.6921C5.90027 20.0281 6.21359 20.2291 6.64404 20.3951C7.13854 20.5861 7.66508 20.6921 8.44589 20.7281C9.55102 20.7801 9.93742 20.7861 12.479 20.7861C14.9556 20.7861 15.36 20.7791 16.5122 20.7281C17.295 20.6911 17.8225 20.5861 18.311 20.3971C18.7445 20.2281 19.0598 20.0271 19.3921 19.6951C19.7295 19.3581 19.9307 19.0451 20.0968 18.6151C20.287 18.1221 20.3931 17.5951 20.4292 16.8151C20.4812 15.7111 20.4872 15.3251 20.4872 12.7861C20.4872 10.3121 20.4802 9.90813 20.4292 8.75713C20.3921 7.97513 20.287 7.44713 20.0968 6.95913C19.946 6.55113 19.7055 6.18209 19.3931 5.87913C19.0905 5.56598 18.7209 5.3253 18.312 5.17513C17.8215 4.98513 17.295 4.88013 16.5122 4.84413C15.407 4.79213 15.0206 4.78613 12.479 4.78613ZM12.479 2.78613C15.1988 2.78613 15.5382 2.79613 16.6053 2.84613C17.6714 2.89613 18.3971 3.06313 19.0358 3.31113C19.6964 3.56513 20.253 3.90913 20.8096 4.46413C21.3186 4.96403 21.7125 5.56872 21.9638 6.23613C22.211 6.87313 22.3792 7.59913 22.4292 8.66413C22.4763 9.73013 22.4893 10.0691 22.4893 12.7861C22.4893 15.5031 22.4793 15.8421 22.4292 16.9081C22.3792 17.9731 22.211 18.6981 21.9638 19.3361C21.7132 20.0039 21.3192 20.6087 20.8096 21.1081C20.309 21.6165 19.7037 22.0099 19.0358 22.2611C18.3981 22.5081 17.6714 22.6761 16.6053 22.7261C15.5382 22.7731 15.1988 22.7861 12.479 22.7861C9.75923 22.7861 9.41988 22.7761 8.35279 22.7261C7.2867 22.6761 6.56095 22.5081 5.92229 22.2611C5.25393 22.0106 4.64851 21.6171 4.14847 21.1081C3.63936 20.6083 3.24548 20.0036 2.99429 19.3361C2.74603 18.6991 2.57886 17.9731 2.52881 16.9081C2.48176 15.8421 2.46875 15.5031 2.46875 12.7861C2.46875 10.0691 2.47876 9.73013 2.52881 8.66413C2.57886 7.59813 2.74603 6.87413 2.99429 6.23613C3.24478 5.56831 3.63875 4.96345 4.14847 4.46413C4.64866 3.95536 5.25404 3.56186 5.92229 3.31113C6.56095 3.06313 7.28569 2.89613 8.35279 2.84613C9.41988 2.79913 9.75923 2.78613 12.479 2.78613Z" fill="black"/>
</svg>
