<svg width="25" height="25" viewBox="0 0 25 25" fill="none" xmlns="http://www.w3.org/2000/svg">
<path d="M22.5563 6.44206C21.7921 6.77975 20.9817 7.00153 20.1519 7.10006C21.0265 6.57749 21.6811 5.75507 21.9938 4.78606C21.1729 5.27406 20.273 5.61606 19.335 5.80106C18.705 5.12764 17.8699 4.68102 16.9595 4.53064C16.0492 4.38027 15.1146 4.53455 14.3011 4.96951C13.4876 5.40447 12.8407 6.09574 12.4611 6.93585C12.0814 7.77596 11.9902 8.71784 12.2017 9.61506C10.5371 9.53171 8.90863 9.09958 7.42205 8.34672C5.93548 7.59386 4.62401 6.53711 3.57281 5.24506C3.20071 5.88351 3.00518 6.60929 3.00622 7.34806C3.00622 8.79806 3.74498 10.0791 4.86814 10.8291C4.20346 10.8082 3.55342 10.6288 2.97219 10.3061V10.3581C2.97239 11.3238 3.3069 12.2597 3.91901 13.0071C4.53112 13.7546 5.38315 14.2675 6.33064 14.4591C5.71362 14.6261 5.06665 14.6507 4.4387 14.5311C4.70584 15.3623 5.22651 16.0893 5.92782 16.6102C6.62913 17.1311 7.47595 17.4199 8.34972 17.4361C7.48131 18.1174 6.48698 18.621 5.42359 18.9182C4.3602 19.2154 3.2486 19.3003 2.15234 19.1681C4.06601 20.3975 6.2937 21.0502 8.56895 21.0481C16.2699 21.0481 20.4812 14.6751 20.4812 9.14806C20.4812 8.96806 20.4762 8.78606 20.4682 8.60806C21.2879 8.01623 21.9954 7.28308 22.5573 6.44306L22.5563 6.44206Z" fill="black"/>
</svg>
