<svg width="25" height="25" viewBox="0 0 25 25" fill="none" xmlns="http://www.w3.org/2000/svg">
<path d="M18.7727 19.1251H16.1049V14.9481C16.1049 13.9521 16.0849 12.6701 14.7135 12.6701C13.3231 12.6701 13.1108 13.7541 13.1108 14.8751V19.1251H10.4421V10.5361H13.0047V11.7061H13.0398C13.3981 11.0321 14.269 10.3191 15.5704 10.3191C18.2732 10.3191 18.7737 12.0971 18.7737 14.4101V19.1251H18.7727ZM7.429 9.36113C7.22534 9.3614 7.02364 9.3215 6.83545 9.24374C6.64726 9.16598 6.47629 9.05187 6.33233 8.90797C6.18837 8.76406 6.07426 8.59319 5.99653 8.40515C5.91881 8.2171 5.87901 8.01558 5.8794 7.81213C5.8796 7.50597 5.97068 7.20674 6.14111 6.95228C6.31155 6.69782 6.55369 6.49957 6.83692 6.38259C7.12015 6.2656 7.43174 6.23515 7.73229 6.29507C8.03284 6.355 8.30886 6.50261 8.52543 6.71924C8.74201 6.93587 8.88941 7.21179 8.94901 7.51211C9.00861 7.81244 8.97772 8.12367 8.86025 8.40645C8.74278 8.68924 8.54401 8.93087 8.28907 9.1008C8.03413 9.27074 7.73448 9.36133 7.428 9.36113H7.429ZM8.76637 19.1251H6.09062V10.5361H8.76737V19.1251H8.76637ZM20.109 3.78613H4.75224C4.01549 3.78613 3.42188 4.36613 3.42188 5.08313V20.4891C3.42188 21.2061 4.01649 21.7861 4.75124 21.7861H20.105C20.8398 21.7861 21.4404 21.2061 21.4404 20.4891V5.08313C21.4404 4.36613 20.8398 3.78613 20.105 3.78613H20.108H20.109Z" fill="black"/>
</svg>
